<?xml version="1.0" encoding="utf-8"?>
<!-- Generator: Adobe Illustrator 17.0.0, SVG Export Plug-In . SVG Version: 6.00 Build 0)  -->
<!DOCTYPE svg PUBLIC "-//W3C//DTD SVG 1.1//EN" "http://www.w3.org/Graphics/SVG/1.1/DTD/svg11.dtd">
<svg version="1.1" id="Layer_1" xmlns="http://www.w3.org/2000/svg" xmlns:xlink="http://www.w3.org/1999/xlink" x="0px" y="0px"
	 width="512px" height="512px" viewBox="0 0 512 512" enable-background="new 0 0 512 512" xml:space="preserve">
<g>

	<path fill="#070405" d="M239.413,1.754c-8.289,0-15.008,6.719-15.008,15.008v76.618c0,8.288,6.719,15.008,15.008,15.008
		c8.288,0,15.007-6.719,15.007-15.008V16.761C254.42,8.473,247.701,1.754,239.413,1.754z"/>
	<path fill="#070405" d="M284.435,1.754c-8.288,0-15.008,6.719-15.008,15.008v76.618c0,8.288,6.719,15.008,15.008,15.008
		c8.289,0,15.008-6.719,15.008-15.008V16.761C299.443,8.473,292.724,1.754,284.435,1.754z"/>
</g>
</svg>
